<?xml version="1.0" encoding="UTF-8"?>
<svg version="1.1" xmlns="http://www.w3.org/2000/svg" width="395" height="318">
<path d="M0 0 C3.41622991 1.1387433 3.69318636 1.64511505 5.49609375 4.5859375 C6.20209717 5.72192383 6.20209717 5.72192383 6.92236328 6.88085938 C7.67235596 8.11545898 7.67235596 8.11545898 8.4375 9.375 C9.50627345 11.1017092 10.57529131 12.82826713 11.64453125 14.5546875 C12.19447754 15.44897461 12.74442383 16.34326172 13.31103516 17.26464844 C16.04838252 21.6979008 18.83808419 26.0978088 21.625 30.5 C22.13345459 31.30614746 22.64190918 32.11229492 23.16577148 32.94287109 C23.63958252 33.69391113 24.11339355 34.44495117 24.6015625 35.21875 C25.01744629 35.87810547 25.43333008 36.53746094 25.86181641 37.21679688 C26.8877891 38.82419811 27.94222895 40.41334342 29 42 C28.65969531 45.69056509 27.44321112 48.3438939 25.55078125 51.4921875 C25.03999023 52.3495752 24.52919922 53.20696289 24.00292969 54.09033203 C23.44508789 55.00927246 22.88724609 55.92821289 22.3125 56.875 C21.43899902 58.33268799 21.43899902 58.33268799 20.54785156 59.81982422 C18.70716861 62.88516702 16.85521293 65.94343254 15 69 C14.43522949 69.93263672 13.87045898 70.86527344 13.28857422 71.82617188 C9.83662026 77.52315943 6.36763843 83.20963581 2.89501953 88.89404297 C-0.516867 94.48616104 -3.91402503 100.08722612 -7.3125 105.6875 C-8.03220824 106.87322076 -8.75193487 108.05893035 -9.47167969 109.24462891 C-10.92340067 111.63619356 -12.3750566 114.02779767 -13.82666016 116.41943359 C-17.03074083 121.69829518 -20.23565795 126.97664893 -23.44052124 132.2550354 C-25.21038263 135.17000226 -26.98018847 138.08500286 -28.75 141 C-29.45833307 142.16666683 -30.1666664 143.33333349 -30.875 144.5 C-31.225625 145.0775 -31.57625 145.655 -31.9375 146.25 C-38.66666667 157.33333333 -45.39583333 168.41666667 -52.125 179.5 C-52.47561493 180.07748489 -52.82622986 180.65496979 -53.18746948 181.24995422 C-53.89589923 182.4167767 -54.60433429 183.58359596 -55.31277466 184.75041199 C-57.08217635 187.66466835 -58.85148614 190.57898043 -60.62060547 193.4934082 C-63.82447526 198.77122433 -67.02900142 204.04863594 -70.23699951 209.32394409 C-71.68660671 211.70784515 -73.13567553 214.09207327 -74.5847168 216.47631836 C-75.55661826 218.07501758 -76.52925781 219.67326803 -77.50195312 221.27148438 C-82.29265701 229.15485921 -87.04205263 237.06266925 -91.78662109 244.97387695 C-92.48836522 246.14375811 -93.19012192 247.31363172 -93.89189148 248.48349762 C-95.59471762 251.32225782 -97.29741706 254.16109393 -99 257 C-98.44452911 256.98806632 -97.88905822 256.97613263 -97.31675488 256.96383733 C-64.29017414 256.25906591 -31.2669602 255.75084517 1.76603293 255.49276508 C5.74450609 255.46151452 9.72296434 255.42864563 13.70141602 255.39477539 C14.88932059 255.38470308 14.88932059 255.38470308 16.10122324 255.3744273 C28.87479912 255.2622721 41.64264592 255.0194878 54.41322403 254.72715195 C67.5476076 254.42944364 80.67823322 254.27504614 93.8159886 254.24969274 C101.18598917 254.2314613 108.54323847 254.14934866 115.90943718 253.90279198 C162.01889873 252.40700318 162.01889873 252.40700318 173.00941849 261.78509903 C180.7981298 269.61801143 193 285.32566292 193 297 C192.21014623 297.00173625 191.42029246 297.0034725 190.60650373 297.00526136 C143.82701929 297.10821703 97.04754917 297.21631383 50.26809223 297.33111694 C44.65529075 297.34488705 39.04248916 297.35861407 33.4296875 297.37231445 C31.75352648 297.37640691 31.75352648 297.37640691 30.04350361 297.38058204 C11.933471 297.42469602 -6.17656786 297.46531623 -24.28661141 297.50465261 C-42.85952412 297.54507188 -61.43242521 297.58922864 -80.00532079 297.63687855 C-91.47221879 297.66617907 -102.9391159 297.69253994 -114.40602902 297.71517897 C-122.26186148 297.73096752 -130.11767972 297.75037577 -137.97349641 297.77266841 C-142.51058822 297.78543535 -147.04766908 297.79657 -151.58477402 297.80341911 C-155.73488459 297.80971913 -159.88495737 297.82054329 -164.0350472 297.8350333 C-165.53981493 297.83947648 -167.04458875 297.84223006 -168.54936275 297.84316199 C-170.5885543 297.84466706 -172.62773776 297.85281807 -174.66691208 297.8613348 C-175.80151643 297.86399284 -176.93612077 297.86665089 -178.10510707 297.86938947 C-180.58442885 297.98125044 -182.63876001 298.2767927 -185 299 C-185 298.01 -185 297.02 -185 296 C-184.34 296 -183.68 296 -183 296 C-182.73533936 295.28497314 -182.47067871 294.56994629 -182.19799805 293.83325195 C-180.96221064 290.91062858 -179.5034273 288.36391507 -177.83203125 285.66796875 C-177.19386475 284.63462402 -176.55569824 283.6012793 -175.89819336 282.53662109 C-175.20991455 281.43141113 -174.52163574 280.32620117 -173.8125 279.1875 C-173.09028625 278.02182671 -172.36836697 276.85597093 -171.64672852 275.68994141 C-169.43706098 272.12293941 -167.21935646 268.56097925 -165 265 C-164.02015137 263.42677979 -164.02015137 263.42677979 -163.02050781 261.82177734 C-159.30815517 255.86530464 -155.58562242 249.91525536 -151.85888672 243.96777344 C-148.73535602 238.98095454 -145.61793541 233.99031846 -142.5 229 C-138.76469476 223.02156868 -135.02823704 217.04387948 -131.28515625 211.0703125 C-124.06149487 199.53653632 -116.89650603 187.96882157 -109.77636719 176.37084961 C-105.35612495 169.17957201 -100.88201732 162.025472 -96.35986328 154.89794922 C-92.76436466 149.22602281 -89.21638511 143.52608532 -85.6875 137.8125 C-81.02102376 130.25758636 -76.33348167 122.71631217 -71.625 115.1875 C-70.99803223 114.18485107 -70.37106445 113.18220215 -69.72509766 112.14916992 C-66.57794086 107.11766406 -63.42846657 102.08761656 -60.27734375 97.05859375 C-53.05675378 85.52843668 -45.89404918 73.96481962 -38.77636719 62.37084961 C-34.36112693 55.18770972 -29.89217798 48.04164166 -25.37524414 40.92211914 C-16.78221229 27.36611028 -8.39895854 13.67685394 0 0 Z " fill="#030303" transform="translate(189,12)"/>
<path d="M0 0 C3.19776639 1.34707228 4.66940943 2.54468138 6.41015625 5.53515625 C6.83659424 6.2528418 7.26303223 6.97052734 7.70239258 7.70996094 C8.15122803 8.48629883 8.60006348 9.26263672 9.0625 10.0625 C10.04494167 11.71599399 11.02936426 13.36831238 12.015625 15.01953125 C12.51384766 15.85693848 13.01207031 16.6943457 13.52539062 17.55712891 C15.70856193 21.17381964 18.00092494 24.71447449 20.3125 28.25 C29.50160507 42.3522398 38.48482379 56.58667368 47.46508789 70.82250977 C53.02440441 79.63140863 58.62158239 88.41615979 64.21777344 97.20166016 C67.72864692 102.71421247 71.23661503 108.22861405 74.74511719 113.74267578 C77.68587905 118.36422524 80.62736332 122.98531178 83.5703125 127.60546875 C89.55356973 137.00023229 95.52327876 146.4031591 101.46582031 155.82373047 C107.01761178 164.62047992 112.60718324 173.39312318 118.19580078 182.16650391 C120.02625662 185.04123603 121.85516031 187.91694994 123.68359375 190.79296875 C124.286875 191.74163818 124.89015625 192.69030762 125.51171875 193.66772461 C126.69838884 195.5341237 127.88459799 197.40081596 129.0703125 199.26782227 C131.65389978 203.33202085 134.2457419 207.38958269 136.87890625 211.421875 C137.30582764 212.07736328 137.73274902 212.73285156 138.17260742 213.40820312 C139.28569309 215.11320176 140.40432598 216.81457549 141.5234375 218.515625 C143 221 143 221 143 223 C121.52139529 225.79346015 121.52139529 225.79346015 114.89697266 221.70068359 C111.13232575 217.79371881 108.94169037 212.85816719 106.58398438 208.02587891 C103.80616373 202.71941942 100.3877985 197.818049 97.05142212 192.85229492 C94.96604474 189.73447672 92.92037838 186.59082591 90.87109375 183.44921875 C90.04815447 182.19050081 89.22507607 180.93187381 88.40185547 179.67333984 C88.00085632 179.06004822 87.59985718 178.44675659 87.18670654 177.81488037 C86.04406933 176.06739709 84.9012296 174.32004647 83.75830078 172.57275391 C79.53525713 166.11650751 75.31362227 159.65934161 71.09277344 153.20166016 C67.56243661 147.80072254 64.03116739 142.40039461 60.5 137 C59.08332895 134.8333362 57.66666228 132.66666953 56.25 130.5 C55.54875 129.4275 54.8475 128.355 54.125 127.25 C30.75 91.5 30.75 91.5 28.62426758 88.2487793 C27.21016515 86.08610132 25.79594024 83.92350342 24.3815918 81.76098633 C20.79967449 76.28394889 17.22001724 70.80545717 13.64453125 65.32421875 C12.9263623 64.22424561 12.20819336 63.12427246 11.46826172 61.9909668 C10.04499035 59.80996058 8.62340599 57.62785243 7.20361328 55.44458008 C3.79158308 50.21053375 0.33980935 45.01345867 -3.21484375 39.875 C-4.2044812 38.43314331 -4.2044812 38.43314331 -5.21411133 36.9621582 C-6.4551167 35.16018733 -7.70823488 33.36647705 -8.9753418 31.58276367 C-9.79578979 30.38744019 -9.79578979 30.38744019 -10.6328125 29.16796875 C-11.35815186 28.13579224 -11.35815186 28.13579224 -12.09814453 27.08276367 C-13.3136237 24.27571094 -12.92888665 22.88783681 -12 20 C-10.78491211 17.59643555 -10.78491211 17.59643555 -9.27734375 15.13671875 C-8.47006836 13.80737305 -8.47006836 13.80737305 -7.64648438 12.45117188 C-7.08251953 11.53916016 -6.51855469 10.62714844 -5.9375 9.6875 C-5.36966797 8.75615234 -4.80183594 7.82480469 -4.21679688 6.86523438 C-2.81775907 4.57269344 -1.41201519 2.28456247 0 0 Z " fill="#0C0C0C" transform="translate(248,14)"/>
<path d="M0 0 C3.71881427 1.23960476 4.12602582 2.33915126 6.16015625 5.6171875 C6.77987305 6.60323975 7.39958984 7.58929199 8.03808594 8.60522461 C8.70614258 9.68425049 9.37419922 10.76327637 10.0625 11.875 C11.50424861 14.16683623 12.94785341 16.45737806 14.39453125 18.74609375 C14.95628555 19.63691399 14.95628555 19.63691399 15.52938843 20.54573059 C19.66173699 27.08169107 23.94729776 33.51292662 28.25 39.9375 C29.00909876 41.07327975 29.76813245 42.20910301 30.52709961 43.3449707 C33.94034624 48.44945773 37.36626127 53.54525225 40.8046875 58.6328125 C41.37155273 59.47465088 41.93841797 60.31648926 42.52246094 61.18383789 C43.56067109 62.72486188 44.60275123 64.26328852 45.64941406 65.79858398 C49 70.77568549 49 70.77568549 49 73 C25.05933533 75.67811647 25.05933533 75.67811647 18.83740234 71.57324219 C15.45984154 67.72460864 13.69922166 63.13374573 11.94775391 58.37451172 C10.39781283 54.4912745 8.202566 51.04053682 6 47.5 C5.43696167 46.53984985 5.43696167 46.53984985 4.86254883 45.56030273 C3.00665945 42.20926045 3.00665945 42.20926045 0 40 C-0.24999756 40.68932617 -0.49999512 41.37865234 -0.75756836 42.08886719 C-2.18752868 45.43939713 -3.97750982 48.48235509 -5.87890625 51.578125 C-6.25103745 52.19016785 -6.62316864 52.80221069 -7.00657654 53.43280029 C-7.78898126 54.71800429 -8.57319837 56.00210653 -9.35913086 57.28515625 C-10.5657757 59.25534852 -11.76673539 61.22891725 -12.96679688 63.203125 C-13.72883923 64.45332464 -14.49119785 65.70333158 -15.25390625 66.953125 C-15.6143251 67.54474426 -15.97474396 68.13636353 -16.34608459 68.74591064 C-18.88317909 72.88317909 -18.88317909 72.88317909 -20 74 C-22.07262076 74.08767112 -24.14820294 74.10695873 -26.22265625 74.09765625 C-28.11274414 74.09282227 -28.11274414 74.09282227 -30.04101562 74.08789062 C-31.38151109 74.07953403 -32.72200588 74.07106907 -34.0625 74.0625 C-35.40689942 74.0574866 -36.7513006 74.05292342 -38.09570312 74.04882812 C-41.39717941 74.03699488 -44.69856803 74.02050971 -48 74 C-46.74096919 70.60903476 -45.30618759 67.72475101 -43.26953125 64.73901367 C-42.72135742 63.93014206 -42.17318359 63.12127045 -41.60839844 62.28788757 C-40.71942871 60.99102776 -40.71942871 60.99102776 -39.8125 59.66796875 C-39.19536133 58.75856033 -38.57822266 57.84915192 -37.94238281 56.91218567 C-35.96605879 54.00088802 -33.98355787 51.09387285 -32 48.1875 C-24.15562365 36.67819204 -16.34231524 25.18335286 -9.06298828 13.3059082 C-6.2166579 8.74470587 -3.15779437 4.34980946 0 0 Z " fill="#0B0B0B" transform="translate(231,127)"/>
<path d="M0 0 C3.39553394 0.05327141 6.79068703 0.02933774 10.18649626 0.01685381 C15.8850479 0.00789258 21.5806202 0.05907784 27.27844572 0.14731646 C33.84984825 0.24840993 40.41640996 0.25703577 46.98835003 0.2155894 C53.33426755 0.17745273 59.67845612 0.20184866 66.02421522 0.25542879 C68.71419484 0.27724827 71.40293873 0.2780609 74.09294844 0.26164675 C77.8554533 0.25251708 81.61021795 0.31474528 85.37170744 0.39633989 C87.03020971 0.37236635 87.03020971 0.37236635 88.72221708 0.3479085 C93.57447306 0.5210147 96.3203824 0.79620306 99.84541273 4.30541658 C101.88737033 7.0883191 103.6784191 9.90095661 105.41223478 12.8831563 C106.23705787 14.07658312 107.06842253 15.26557936 107.91223478 16.4456563 C109.41223478 18.8831563 109.41223478 18.8831563 109.41223478 20.8831563 C60.90223478 20.8831563 12.39223478 20.8831563 -37.58776522 20.8831563 C-36.92776522 19.5631563 -36.26776522 18.2431563 -35.58776522 16.8831563 C-35.12165834 15.69291857 -34.65555147 14.50268084 -34.17532015 13.27637529 C-27.2857173 -1.75490687 -14.851669 -0.29029668 0 0 Z " fill="#020202" transform="translate(195.5877652168274,215.11684370040894)"/>
</svg>
